<mxfile host="app.diagrams.net" modified="2022-05-25T06:04:52.359Z" agent="5.0 (Macintosh; Intel Mac OS X 10_15_7) AppleWebKit/537.36 (KHTML, like Gecko) Chrome/101.0.4951.64 Safari/537.36" etag="FSTiAYau0p2safZmXmo_" version="18.0.5" type="github">
  <diagram id="C5RBs43oDa-KdzZeNtuy" name="Page-1">
    <mxGraphModel dx="1426" dy="769" grid="1" gridSize="10" guides="1" tooltips="1" connect="1" arrows="1" fold="1" page="1" pageScale="1" pageWidth="827" pageHeight="1169" math="0" shadow="0">
      <root>
        <mxCell id="WIyWlLk6GJQsqaUBKTNV-0" />
        <mxCell id="WIyWlLk6GJQsqaUBKTNV-1" parent="WIyWlLk6GJQsqaUBKTNV-0" />
        <mxCell id="dGrIC0Z-k37hvn5Uh3OH-5" style="edgeStyle=orthogonalEdgeStyle;rounded=0;orthogonalLoop=1;jettySize=auto;html=1;entryX=0.5;entryY=0;entryDx=0;entryDy=0;" edge="1" parent="WIyWlLk6GJQsqaUBKTNV-1" source="WIyWlLk6GJQsqaUBKTNV-3" target="WIyWlLk6GJQsqaUBKTNV-11">
          <mxGeometry relative="1" as="geometry" />
        </mxCell>
        <mxCell id="WIyWlLk6GJQsqaUBKTNV-3" value="初始化FB" style="rounded=1;whiteSpace=wrap;html=1;fontSize=12;glass=0;strokeWidth=1;shadow=0;" parent="WIyWlLk6GJQsqaUBKTNV-1" vertex="1">
          <mxGeometry x="170" y="160" width="120" height="40" as="geometry" />
        </mxCell>
        <mxCell id="dGrIC0Z-k37hvn5Uh3OH-4" style="edgeStyle=orthogonalEdgeStyle;rounded=0;orthogonalLoop=1;jettySize=auto;html=1;entryX=0.5;entryY=0;entryDx=0;entryDy=0;" edge="1" parent="WIyWlLk6GJQsqaUBKTNV-1" source="WIyWlLk6GJQsqaUBKTNV-11" target="dGrIC0Z-k37hvn5Uh3OH-1">
          <mxGeometry relative="1" as="geometry" />
        </mxCell>
        <mxCell id="WIyWlLk6GJQsqaUBKTNV-11" value="初始化FireBase" style="rounded=1;whiteSpace=wrap;html=1;fontSize=12;glass=0;strokeWidth=1;shadow=0;" parent="WIyWlLk6GJQsqaUBKTNV-1" vertex="1">
          <mxGeometry x="170" y="250" width="120" height="40" as="geometry" />
        </mxCell>
        <mxCell id="dGrIC0Z-k37hvn5Uh3OH-0" value="TCP Android初始化流程图" style="text;strokeColor=none;fillColor=none;html=1;fontSize=24;fontStyle=1;verticalAlign=middle;align=center;" vertex="1" parent="WIyWlLk6GJQsqaUBKTNV-1">
          <mxGeometry x="380" y="20" width="100" height="40" as="geometry" />
        </mxCell>
        <mxCell id="dGrIC0Z-k37hvn5Uh3OH-7" style="edgeStyle=orthogonalEdgeStyle;rounded=0;orthogonalLoop=1;jettySize=auto;html=1;entryX=0.5;entryY=0;entryDx=0;entryDy=0;" edge="1" parent="WIyWlLk6GJQsqaUBKTNV-1" source="dGrIC0Z-k37hvn5Uh3OH-1" target="dGrIC0Z-k37hvn5Uh3OH-6">
          <mxGeometry relative="1" as="geometry" />
        </mxCell>
        <mxCell id="dGrIC0Z-k37hvn5Uh3OH-1" value="初始化支付" style="rounded=1;whiteSpace=wrap;html=1;fontSize=12;glass=0;strokeWidth=1;shadow=0;" vertex="1" parent="WIyWlLk6GJQsqaUBKTNV-1">
          <mxGeometry x="170" y="340" width="120" height="40" as="geometry" />
        </mxCell>
        <mxCell id="dGrIC0Z-k37hvn5Uh3OH-12" style="edgeStyle=orthogonalEdgeStyle;rounded=0;orthogonalLoop=1;jettySize=auto;html=1;" edge="1" parent="WIyWlLk6GJQsqaUBKTNV-1" source="dGrIC0Z-k37hvn5Uh3OH-6" target="dGrIC0Z-k37hvn5Uh3OH-11">
          <mxGeometry relative="1" as="geometry" />
        </mxCell>
        <mxCell id="dGrIC0Z-k37hvn5Uh3OH-6" value="初始化云派TGA" style="rounded=1;whiteSpace=wrap;html=1;fontSize=12;glass=0;strokeWidth=1;shadow=0;" vertex="1" parent="WIyWlLk6GJQsqaUBKTNV-1">
          <mxGeometry x="170" y="430" width="120" height="40" as="geometry" />
        </mxCell>
        <mxCell id="dGrIC0Z-k37hvn5Uh3OH-23" style="edgeStyle=orthogonalEdgeStyle;rounded=0;orthogonalLoop=1;jettySize=auto;html=1;" edge="1" parent="WIyWlLk6GJQsqaUBKTNV-1" source="dGrIC0Z-k37hvn5Uh3OH-11" target="dGrIC0Z-k37hvn5Uh3OH-22">
          <mxGeometry relative="1" as="geometry" />
        </mxCell>
        <mxCell id="dGrIC0Z-k37hvn5Uh3OH-11" value="拉起Unity" style="rounded=1;whiteSpace=wrap;html=1;fontSize=12;glass=0;strokeWidth=1;shadow=0;" vertex="1" parent="WIyWlLk6GJQsqaUBKTNV-1">
          <mxGeometry x="340" y="430" width="120" height="40" as="geometry" />
        </mxCell>
        <mxCell id="dGrIC0Z-k37hvn5Uh3OH-16" style="edgeStyle=orthogonalEdgeStyle;rounded=0;orthogonalLoop=1;jettySize=auto;html=1;entryX=0.5;entryY=0;entryDx=0;entryDy=0;" edge="1" parent="WIyWlLk6GJQsqaUBKTNV-1" source="dGrIC0Z-k37hvn5Uh3OH-13" target="dGrIC0Z-k37hvn5Uh3OH-15">
          <mxGeometry relative="1" as="geometry" />
        </mxCell>
        <mxCell id="dGrIC0Z-k37hvn5Uh3OH-21" value="" style="edgeStyle=orthogonalEdgeStyle;rounded=0;orthogonalLoop=1;jettySize=auto;html=1;" edge="1" parent="WIyWlLk6GJQsqaUBKTNV-1" source="dGrIC0Z-k37hvn5Uh3OH-13" target="dGrIC0Z-k37hvn5Uh3OH-15">
          <mxGeometry relative="1" as="geometry" />
        </mxCell>
        <mxCell id="dGrIC0Z-k37hvn5Uh3OH-13" value="调用初始化SDK接口" style="rounded=1;whiteSpace=wrap;html=1;fontSize=12;glass=0;strokeWidth=1;shadow=0;" vertex="1" parent="WIyWlLk6GJQsqaUBKTNV-1">
          <mxGeometry x="520" y="430" width="120" height="40" as="geometry" />
        </mxCell>
        <mxCell id="dGrIC0Z-k37hvn5Uh3OH-18" style="edgeStyle=orthogonalEdgeStyle;rounded=0;orthogonalLoop=1;jettySize=auto;html=1;entryX=0.5;entryY=0;entryDx=0;entryDy=0;" edge="1" parent="WIyWlLk6GJQsqaUBKTNV-1" source="dGrIC0Z-k37hvn5Uh3OH-15" target="dGrIC0Z-k37hvn5Uh3OH-17">
          <mxGeometry relative="1" as="geometry" />
        </mxCell>
        <mxCell id="dGrIC0Z-k37hvn5Uh3OH-15" value="获取installTime" style="rounded=1;whiteSpace=wrap;html=1;fontSize=12;glass=0;strokeWidth=1;shadow=0;" vertex="1" parent="WIyWlLk6GJQsqaUBKTNV-1">
          <mxGeometry x="520" y="510" width="120" height="40" as="geometry" />
        </mxCell>
        <mxCell id="dGrIC0Z-k37hvn5Uh3OH-20" style="edgeStyle=orthogonalEdgeStyle;rounded=0;orthogonalLoop=1;jettySize=auto;html=1;entryX=0.5;entryY=0;entryDx=0;entryDy=0;" edge="1" parent="WIyWlLk6GJQsqaUBKTNV-1" source="dGrIC0Z-k37hvn5Uh3OH-17" target="dGrIC0Z-k37hvn5Uh3OH-19">
          <mxGeometry relative="1" as="geometry" />
        </mxCell>
        <mxCell id="dGrIC0Z-k37hvn5Uh3OH-17" value="初始化点点SDK" style="rounded=1;whiteSpace=wrap;html=1;fontSize=12;glass=0;strokeWidth=1;shadow=0;" vertex="1" parent="WIyWlLk6GJQsqaUBKTNV-1">
          <mxGeometry x="520" y="590" width="120" height="40" as="geometry" />
        </mxCell>
        <mxCell id="dGrIC0Z-k37hvn5Uh3OH-19" value="初始化广告SDK" style="rounded=1;whiteSpace=wrap;html=1;fontSize=12;glass=0;strokeWidth=1;shadow=0;" vertex="1" parent="WIyWlLk6GJQsqaUBKTNV-1">
          <mxGeometry x="520" y="670" width="120" height="40" as="geometry" />
        </mxCell>
        <mxCell id="dGrIC0Z-k37hvn5Uh3OH-24" style="edgeStyle=orthogonalEdgeStyle;rounded=0;orthogonalLoop=1;jettySize=auto;html=1;entryX=0.5;entryY=0;entryDx=0;entryDy=0;" edge="1" parent="WIyWlLk6GJQsqaUBKTNV-1" source="dGrIC0Z-k37hvn5Uh3OH-22" target="dGrIC0Z-k37hvn5Uh3OH-13">
          <mxGeometry relative="1" as="geometry" />
        </mxCell>
        <mxCell id="dGrIC0Z-k37hvn5Uh3OH-22" value="获取分组信息" style="rounded=1;whiteSpace=wrap;html=1;fontSize=12;glass=0;strokeWidth=1;shadow=0;" vertex="1" parent="WIyWlLk6GJQsqaUBKTNV-1">
          <mxGeometry x="340" y="340" width="120" height="40" as="geometry" />
        </mxCell>
        <mxCell id="dGrIC0Z-k37hvn5Uh3OH-27" style="edgeStyle=orthogonalEdgeStyle;rounded=0;orthogonalLoop=1;jettySize=auto;html=1;entryX=0.5;entryY=0;entryDx=0;entryDy=0;" edge="1" parent="WIyWlLk6GJQsqaUBKTNV-1" source="dGrIC0Z-k37hvn5Uh3OH-26" target="WIyWlLk6GJQsqaUBKTNV-3">
          <mxGeometry relative="1" as="geometry" />
        </mxCell>
        <mxCell id="dGrIC0Z-k37hvn5Uh3OH-26" value="启动游戏" style="rounded=1;whiteSpace=wrap;html=1;fontSize=12;glass=0;strokeWidth=1;shadow=0;" vertex="1" parent="WIyWlLk6GJQsqaUBKTNV-1">
          <mxGeometry x="170" y="80" width="120" height="40" as="geometry" />
        </mxCell>
      </root>
    </mxGraphModel>
  </diagram>
</mxfile>
